<svg xmlns="http://www.w3.org/2000/svg" viewBox="0 0 32 32">
  <rect width="32" height="32" rx="8" fill="#EFF4EC"/>
  <g transform="translate(16,16)">
    <path d="M0,0 C-3,-2 -5,-9 0,-13 C5,-9 3,-2 0,0Z" fill="#CFE8D5" stroke="#2F5D50" stroke-width="1.2" stroke-linecap="round" stroke-linejoin="round" transform="rotate(0)"/>
    <path d="M0,0 C-3,-2 -5,-9 0,-13 C5,-9 3,-2 0,0Z" fill="#CFE8D5" stroke="#2F5D50" stroke-width="1.2" stroke-linecap="round" stroke-linejoin="round" transform="rotate(72)"/>
    <path d="M0,0 C-3,-2 -5,-9 0,-13 C5,-9 3,-2 0,0Z" fill="#CFE8D5" stroke="#2F5D50" stroke-width="1.2" stroke-linecap="round" stroke-linejoin="round" transform="rotate(144)"/>
    <path d="M0,0 C-3,-2 -5,-9 0,-13 C5,-9 3,-2 0,0Z" fill="#CFE8D5" stroke="#2F5D50" stroke-width="1.2" stroke-linecap="round" stroke-linejoin="round" transform="rotate(216)"/>
    <path d="M0,0 C-3,-2 -5,-9 0,-13 C5,-9 3,-2 0,0Z" fill="#CFE8D5" stroke="#2F5D50" stroke-width="1.2" stroke-linecap="round" stroke-linejoin="round" transform="rotate(288)"/>
    <circle cx="0" cy="0" r="2.8" fill="#CFE8D5" stroke="#2F5D50" stroke-width="1.2"/>
  </g>
</svg>
